<svg version="1.1" id="Layer_1" xmlns="http://www.w3.org/2000/svg" xmlns:xlink="http://www.w3.org/1999/xlink" x="0px" y="0px"
	 width="100%" viewBox="0 0 512 512" enable-background="new 0 0 512 512" xml:space="preserve">
<path fill="#000000" opacity="0.000000" stroke="none" 
	d="
M512.715454,302.723938 
	C513.000000,371.633881 512.974365,440.267822 513.080933,508.901550 
	C513.085876,512.108704 512.728943,513.108765 509.102081,513.106140 
	C341.015778,512.984131 172.929367,512.982788 4.843078,513.111450 
	C1.103793,513.114319 0.923364,511.939575 0.928044,508.846680 
	C1.023834,445.543671 1.000000,382.240479 1.000000,318.468658 
	C4.731594,314.814240 5.010976,317.959015 5.528985,320.506042 
	C7.723579,331.296692 10.601174,341.876648 14.622272,352.153778 
	C21.307970,369.241150 30.694874,384.702057 42.729321,398.484100 
	C68.694786,428.220245 101.261307,446.446503 140.215439,452.686646 
	C168.809647,457.267181 196.975449,454.258362 224.614609,445.844666 
	C245.051056,439.623627 264.596680,431.086182 284.292145,422.938873 
	C311.014343,411.884888 338.323914,402.841003 367.250549,399.834991 
	C376.327759,398.891693 385.483307,398.559906 394.649384,398.399567 
	C423.138550,397.901154 448.413574,388.589752 470.137756,369.886261 
	C489.905029,352.867584 502.023468,331.365906 508.257385,306.260834 
	C508.726349,304.372375 507.999420,300.343536 512.715454,302.723938 
z"/>
<path fill="#000000" opacity="0.000000" stroke="none" 
	d="
M1.290277,196.279922 
	C1.000000,132.364410 1.028030,68.728783 0.918105,5.093380 
	C0.912546,1.875486 1.286492,0.891856 4.902932,0.894466 
	C172.987411,1.015807 341.072021,1.017236 509.156494,0.888590 
	C512.894775,0.885729 513.076965,2.058926 513.072083,5.152787 
	C512.975342,66.455971 513.000000,127.759346 513.000000,189.531342 
	C509.944733,192.904068 509.123749,190.478806 508.402985,188.030518 
	C506.662781,182.119095 504.995148,176.200516 502.382904,170.573929 
	C490.671753,145.348709 470.873871,127.981659 447.486481,114.193665 
	C419.061707,97.435883 387.989044,87.533798 356.184662,79.709557 
	C324.433319,71.898361 292.166595,66.987869 259.657562,63.817760 
	C243.277786,62.220490 226.831223,61.248451 210.387238,60.276306 
	C193.391113,59.271523 176.407166,59.161037 159.460678,59.647457 
	C120.883446,60.754757 87.035355,74.539421 58.099827,100.053963 
	C29.841566,124.971306 12.749665,156.287506 5.556688,193.155899 
	C5.170275,195.136490 5.450953,198.419296 1.290277,196.279922 
z"/>
<path fill="#BD3723" opacity="1.000000" stroke="none" 
	d="
M1.000000,196.468658 
	C2.822971,196.530899 2.789418,195.214569 2.982433,194.052063 
	C7.659658,165.881851 19.080894,140.776566 36.945034,118.497551 
	C61.447224,87.940018 93.082344,68.972610 131.000320,60.107677 
	C145.461044,56.726871 160.185913,56.765999 174.920166,56.980587 
	C182.414337,57.089725 189.927521,56.682720 197.404022,57.062176 
	C216.189301,58.015591 234.962784,59.042747 253.715118,60.759449 
	C267.169281,61.991123 280.616425,63.355442 293.971405,65.181938 
	C313.931702,67.911797 333.792725,71.493477 353.397400,76.229530 
	C374.749268,81.387665 395.777008,87.609985 416.159851,95.923302 
	C443.657654,107.138535 468.946899,121.703278 488.717499,144.343689 
	C499.687927,156.906570 507.245209,171.452652 510.970245,187.833298 
	C511.193054,188.813065 511.132507,189.836426 512.621948,190.158936 
	C513.000000,227.354233 513.000000,264.708466 513.000000,302.531342 
	C511.167542,302.446991 511.244080,303.792175 511.011200,304.934631 
	C506.855164,325.322388 497.877594,343.265106 484.425049,359.184113 
	C467.899170,378.739868 447.026001,391.169586 422.550446,397.583740 
	C413.851624,399.863434 404.858063,401.191864 395.686768,401.062103 
	C360.094666,400.558411 326.271667,408.794464 293.497345,422.140686 
	C273.902771,430.119843 254.422928,438.456879 234.498672,445.525726 
	C219.231934,450.942169 203.411316,454.606720 187.095978,456.200592 
	C174.947693,457.387360 162.790298,457.534698 150.775864,456.734283 
	C134.563568,455.654236 118.765083,451.634399 103.654221,445.299469 
	C85.284416,437.598328 68.790482,427.201080 54.007961,413.688751 
	C26.912054,388.921082 10.806401,358.257751 3.059673,322.776306 
	C2.692800,321.095978 3.845375,319.025421 1.401480,317.883118 
	C1.000000,277.645782 1.000000,237.291550 1.000000,196.468658 
z"/>
<path fill="#FFFFFF" opacity="1.000000" stroke="none" 
	d="
M466.000793,347.996094 
	C449.345581,365.169281 429.725311,375.892822 406.089111,379.157837 
	C400.601898,379.915802 395.197937,379.847473 389.751129,379.983093 
	C357.408691,380.788391 326.204071,387.039520 295.893738,398.449005 
	C270.852783,407.875000 246.662369,419.431183 221.110062,427.582611 
	C198.783218,434.705078 175.917953,437.822906 152.742661,435.779938 
	C126.107506,433.431976 101.732574,424.215637 80.204887,407.810577 
	C61.219116,393.342529 46.110394,375.762177 35.767593,354.276581 
	C29.194387,340.621765 24.626465,326.253784 23.035557,311.085022 
	C22.850197,309.317657 21.215061,307.763062 22.597340,305.357758 
	C26.549723,310.675690 29.800650,316.255981 33.628513,321.417328 
	C47.611320,340.271118 65.000076,355.170319 85.337196,366.652130 
	C100.752586,375.355194 117.262154,381.419189 134.645325,384.686157 
	C141.559113,385.985535 148.571686,387.343018 155.747330,387.047699 
	C161.456970,386.812683 167.184982,386.931763 172.903137,387.013428 
	C190.028534,387.257935 206.527069,383.674957 222.899231,379.111755 
	C249.278931,371.759277 273.780151,359.523163 299.293488,349.922638 
	C318.357910,342.748810 337.731323,336.812347 357.992188,333.907166 
	C372.766479,331.788696 387.570648,330.997284 402.467194,330.950317 
	C411.938324,330.920441 416.727783,322.538818 412.180298,314.530579 
	C410.339508,311.288788 407.367615,310.110229 403.988190,310.039734 
	C374.632935,309.427582 345.768066,312.773865 317.583313,321.199280 
	C291.561554,328.978119 266.917419,340.377258 241.745346,350.374939 
	C222.894257,357.862122 203.571701,363.837891 183.438965,365.770386 
	C147.935333,369.178253 114.745224,361.854340 84.935608,341.431488 
	C63.398907,326.676453 46.939899,307.530701 35.631035,284.077332 
	C29.038847,270.405823 24.662859,255.999741 22.933968,240.808502 
	C19.887751,214.042313 22.914576,188.252167 34.108368,163.534943 
	C48.408073,131.959518 71.169876,108.443886 101.853561,92.734779 
	C116.382652,85.296318 131.886841,80.542107 148.316452,78.902832 
	C166.919281,77.046722 185.546600,77.908653 204.127686,78.283585 
	C214.314423,78.489136 224.613113,78.837921 234.794159,80.025543 
	C247.058182,81.456146 259.376007,82.279419 271.642334,83.792511 
	C285.671021,85.522987 299.613281,87.640633 313.573212,89.818489 
	C331.439362,92.605743 349.002686,96.644012 366.408203,101.315834 
	C388.675964,107.292732 410.348389,115.035599 430.762268,125.945992 
	C449.595673,136.011688 466.379303,148.586090 478.755981,166.285889 
	C491.234955,184.132034 494.205933,204.060989 491.104248,225.241791 
	C488.182251,245.195816 480.056702,262.603119 466.271820,277.407837 
	C464.266083,279.561951 462.439758,281.926483 460.420837,284.111694 
	C457.029877,287.781952 457.020599,294.069122 460.227783,297.708618 
	C463.460144,301.376617 469.737122,302.436066 473.741791,299.754852 
	C481.025879,294.877960 485.655792,287.521332 491.030975,280.868011 
	C491.418549,280.388275 491.860046,279.952087 492.305817,279.463501 
	C492.454651,305.740967 483.818237,328.459045 466.000793,347.996094 
z"/>
<path fill="#BD3723" opacity="1.000000" stroke="none" 
	d="
M433.648010,149.294083 
	C445.860016,157.644333 457.142334,166.404480 464.693207,179.111221 
	C469.646149,187.446121 472.619904,196.207062 473.100616,206.026657 
	C473.853912,221.415390 471.491150,236.103882 463.741547,249.439850 
	C450.816284,271.682404 432.043335,285.934784 406.146637,290.123169 
	C401.670471,290.847076 397.266602,290.906830 392.809753,290.999512 
	C366.374573,291.549255 340.418854,295.179932 314.954193,302.480072 
	C293.435181,308.649109 272.929108,317.433563 252.301926,325.931152 
	C232.094269,334.255951 211.780838,342.616882 190.050583,345.692444 
	C165.866257,349.115356 141.851486,348.047333 118.782906,338.406982 
	C88.862137,325.903168 66.729332,305.154480 52.661259,276.051147 
	C44.767097,259.720093 40.951115,242.427155 40.802139,224.052780 
	C40.634007,203.315979 44.593525,183.805099 53.928715,165.389099 
	C66.405266,140.775970 85.000031,122.124527 109.675766,109.798141 
	C126.511009,101.388367 144.341858,96.681351 163.354507,96.962822 
	C176.351227,97.155220 189.354019,97.082687 202.351944,96.936417 
	C205.247910,96.903816 207.930832,97.653549 210.586670,98.367271 
	C214.569321,99.437561 217.695908,105.371834 216.952133,109.574867 
	C216.039154,114.734238 212.524002,117.963722 207.497757,117.980560 
	C192.331787,118.031380 177.164658,117.895645 161.999603,118.024193 
	C138.872101,118.220222 118.771530,126.677376 100.739334,140.739212 
	C85.050438,152.973709 74.294609,168.844131 67.494522,187.256897 
	C60.958061,204.955811 60.034233,223.440353 63.542534,241.893982 
	C67.818428,264.385162 78.647804,283.551361 95.578728,298.972931 
	C110.727379,312.771118 128.486420,321.622437 148.814621,324.996887 
	C175.312469,329.395447 200.327576,323.396301 224.845123,314.038330 
	C251.375519,303.912170 277.135345,291.794159 304.368927,283.478455 
	C321.836609,278.144775 339.667480,274.354767 357.738800,272.231750 
	C369.851715,270.808685 382.101990,269.902100 394.370575,269.976318 
	C420.837433,270.136414 445.939911,249.605286 451.058777,222.512253 
	C453.344910,210.412369 452.824524,198.668503 445.554382,188.302765 
	C438.733551,178.577652 429.298218,171.602219 419.151886,165.586014 
	C393.414154,150.325043 365.200531,141.752945 336.321411,135.041748 
	C319.693237,131.177551 302.915680,128.068085 285.960693,125.982147 
	C281.100494,125.384201 276.614471,123.497078 275.240021,118.626854 
	C273.954926,114.073242 274.666992,109.295235 279.261810,106.220299 
	C282.923126,103.770096 287.118500,104.647629 290.832123,105.227127 
	C309.454651,108.133041 328.030823,111.283806 346.361176,115.855293 
	C364.842468,120.464447 383.084076,125.640968 400.748993,132.860825 
	C412.036835,137.474289 422.944275,142.743134 433.648010,149.294083 
z"/>
<path fill="#BD3723" opacity="1.000000" stroke="none" 
	d="
M199.038132,224.064087 
	C172.218979,236.908325 134.241119,225.419098 126.006462,193.931320 
	C122.123253,179.082657 125.122795,165.585358 135.603134,153.766815 
	C146.064728,141.969437 159.511749,136.368088 174.557022,136.258072 
	C196.556213,136.097168 218.853394,147.255508 225.625305,172.555679 
	C230.735153,191.646301 221.284897,211.114563 204.545639,221.133484 
	C202.865753,222.138947 201.129791,223.050705 199.038132,224.064087 
z"/>
<path fill="#BD3723" opacity="1.000000" stroke="none" 
	d="
M247.802338,112.370972 
	C245.816986,117.762131 242.609665,120.349274 236.867249,120.124672 
	C232.287979,119.945580 229.301956,117.758209 227.287094,114.252419 
	C224.514252,109.427834 227.269867,102.417786 232.348862,100.310036 
	C238.554962,97.734558 244.978333,100.422775 247.185135,106.212547 
	C247.933365,108.175568 247.983658,110.026314 247.802338,112.370972 
z"/>
<path fill="#BD3723" opacity="1.000000" stroke="none" 
	d="
M433.726135,311.067505 
	C432.638733,305.214264 435.285919,300.261078 440.121338,298.424683 
	C444.389923,296.803558 450.030334,298.475464 452.563385,302.112732 
	C454.962402,305.557404 454.572357,313.098999 451.278473,315.974121 
	C446.409363,320.224243 436.851715,320.876434 433.726135,311.067505 
z"/>
<path fill="#FFFFFF" opacity="1.000000" stroke="none" 
	d="
M168.800537,207.564789 
	C156.364151,204.545914 148.047806,197.936066 145.559738,185.197418 
	C144.831589,181.469482 145.676407,178.014526 147.137375,174.801849 
	C152.483948,163.044785 162.630768,157.635529 174.703400,157.261932 
	C186.362946,156.901138 196.481689,161.774826 202.861511,172.247711 
	C210.234085,184.350220 202.710098,200.600876 187.721786,206.033920 
	C181.592499,208.255722 175.457413,208.193283 168.800537,207.564789 
z"/>
</svg>